<svg xmlns="http://www.w3.org/2000/svg" id="Layer_1" data-name="Layer 1" viewBox="0 0 1480 819.29"><defs><style>      .cls-1 {        fill: #fff;        stroke-width: 0px;      }    </style></defs><path class="cls-1" d="M348.63,536.85h4.25c2.76,0,5.02.82,6.91,2.51,1.85,1.66,2.82,3.75,2.94,6.33v80.7c0,13.7-4.1,24.92-12.19,33.34-8.07,8.41-18.76,12.67-31.78,12.67s-23.51-4.49-31.25-13.35c-7.76-8.9-11.7-20.79-11.7-35.32v-78c.11-2.61,1.07-4.69,2.94-6.37,1.89-1.69,4.15-2.51,6.91-2.51h4.23v-3.98h-43.41v3.98h4.23c1.88,0,3.6.38,5.06,1.12,3.23,1.75,4.8,4.41,4.8,8.13v80.49c0,16.14,5.36,29.34,15.93,39.23,10.56,9.87,24.5,14.87,41.43,14.87s30.71-5.05,40.93-14.99c10.23-9.95,15.41-23.18,15.41-39.31v-80.86c.12-2.47,1.12-4.48,3.04-6.15,1.93-1.68,4.22-2.53,6.81-2.53h4.25v-3.98h-39.75v3.98ZM175.33,608.47l-37.8-29.83c-5.72-4.55-8.62-10.31-8.62-17.12s2.24-12.52,6.66-16.88c4.42-4.36,9.99-6.56,16.57-6.56s12.18,1.81,16.55,5.4c4.36,3.6,6.56,8.4,6.69,14.7l.02.95h3.98l-.44-27.08-8.92.02c-6.46-1.37-12.51-2.06-17.99-2.06-11.11,0-20.08,3.57-26.65,10.63-6.55,7.03-9.87,15.74-9.87,25.89s4.18,18.65,12.42,25.07l36.77,29.02c6.12,4.79,10.61,10.1,13.32,15.78,2.72,5.73,4.1,11.09,4.1,15.93,0,.87-.07,1.79-.2,2.76-1.33,13.08-7.41,22.51-18.08,28.05-5.7,3.04-12.51,4.59-20.28,4.59s-14.73-2.08-20.82-6.18c-10.41-6.85-15.69-16.62-15.69-29.02,0-10.49,3.51-20.41,10.43-29.44l.58-.77-3.32-2.57-.61.65c-5.52,5.93-9.3,11.93-11.23,17.83-1.94,5.86-2.91,10.57-2.91,13.99s.21,6.2.64,8.45c2.63,14.7,10.58,25.25,23.62,31.35,6.91,3.32,14.88,5,23.7,5,14.48,0,26.24-4.01,34.98-11.9,10.1-9.13,15.22-20.23,15.22-33,0-16.99-7.68-31.68-22.83-43.66ZM547.22,536.85h4.86c3.16,0,5.81,1.09,8.11,3.31,2.28,2.22,3.45,4.91,3.57,8.19v98.87l-109.66-117.11-.28-.31h-3.57l.55,4.39c.94,6.43,1.42,13.87,1.42,22.13v106.03c0,3.32-1.11,5.99-3.38,8.2-2.25,2.19-4.98,3.3-8.11,3.3h-4.84v3.98h44.03v-3.98h-4.86c-2.02,0-3.87-.49-5.65-1.51-3.82-2.16-5.72-5.37-5.84-9.78v-99.28l109.66,117.11.28.31h3.35l-.53-4.78c-.94-6.97-1.42-14.49-1.42-22.34v-105.38c.13-3.18,1.3-5.81,3.59-8.02,2.28-2.23,4.94-3.31,8.11-3.31h4.64v-3.98h-44.03v3.98ZM1378.07,698.33l-.74.28c-12.38,4.71-23.85,7.1-34.1,7.1s-22.78-1.81-37.15-5.39c-14.43-3.6-36.36-10.49-65.18-20.5-2.85-1.04-4.99-2.33-6.36-3.84-1.37-1.49-2.19-2.81-2.42-3.94-.26-1.21-.39-3.04-.39-5.41v-117.88c0-3.3,1.18-6.05,3.59-8.4,2.39-2.33,5.25-3.51,8.51-3.51h3.63v-3.98h-46.68v3.98h3.63c3.29,0,6.05,1.15,8.4,3.49,2.37,2.38,3.58,5.15,3.71,8.42v113.15c-.13,3.4-1.37,6.27-3.7,8.53-2.36,2.29-5.11,3.41-8.42,3.41h-3.63v3.97l.96.02c9.21.14,21.19,3.48,35.6,9.93,4.07,1.76,14.41,6.77,31.62,15.31,22.1,10.78,42.1,16.24,59.46,16.24s34.11-5.83,50.82-17.33l.76-.52-1.93-3.1ZM1073.25,530c-21.95,0-40.02,7-53.7,20.82-13.67,13.81-20.6,32.15-20.6,54.52s6.93,40.71,20.6,54.52c13.68,13.82,31.75,20.82,53.7,20.82s40.07-7,53.81-20.82c13.74-13.82,20.71-32.16,20.71-54.52s-6.97-40.7-20.71-54.52c-13.74-13.82-31.84-20.82-53.81-20.82ZM1114.48,654.15h0c-10.3,12.25-24.14,18.46-41.13,18.46s-30.83-6.21-41.15-18.45c-10.35-12.3-15.6-28.72-15.6-48.82s5.25-36.52,15.6-48.81c10.32-12.25,24.13-18.46,41.04-18.46,11.19,0,21.22,2.8,29.82,8.32,8.57,5.51,15.29,13.45,19.98,23.6,4.68,10.17,7.06,22.06,7.06,35.34,0,20.1-5.25,36.52-15.62,48.81ZM869.36,530c-21.97,0-40.04,7-53.72,20.82-13.67,13.81-20.6,32.15-20.6,54.52s6.93,40.71,20.6,54.52c13.68,13.82,31.75,20.82,53.72,20.82s40.05-7,53.81-20.82c13.74-13.82,20.71-32.16,20.71-54.52s-6.97-40.7-20.71-54.52c-13.76-13.82-31.86-20.82-53.81-20.82ZM910.59,654.16c-10.31,12.24-24.16,18.45-41.15,18.45s-30.83-6.21-41.13-18.46c-10.35-12.27-15.6-28.7-15.6-48.81s5.25-36.54,15.6-48.82c10.31-12.24,24.12-18.45,41.04-18.45,11.19,0,21.22,2.8,29.82,8.32,8.58,5.53,15.3,13.47,19.97,23.6,4.68,10.17,7.06,22.06,7.06,35.34,0,20.09-5.25,36.52-15.6,48.82ZM695.7,532.86h-54.41l.42,3.98h3.32c3.19,0,5.85,1.02,8.13,3.13,2.29,2.09,3.6,4.67,3.98,7.76v114.17c-.13,3.32-1.34,6.08-3.71,8.44-2.34,2.35-5.1,3.5-8.4,3.5h-3.63v3.98h46.68v-3.98h-3.63c-3.3,0-6.06-1.15-8.4-3.5-2.36-2.35-3.57-5.11-3.7-8.4v-121h22.52c8.23,0,14.72,2.74,19.27,8.13,4.6,5.45,7.06,12.92,7.33,22.15v4.49c0,2.35-.4,4.87-1.18,7.47-2.63,8.42-7.61,14.55-14.84,18.22-8.19,4.23-17.23,5.31-26.92,3.19l-1.18-.26v3.84l.53.27c6.22,3.19,13.72,4.8,22.3,4.8,2.97,0,6.52-.71,10.53-2.09,11.5-3.88,19.67-10.85,24.28-20.72,2.5-5.3,3.76-11.07,3.76-17.17,0-12.48-3.89-22.45-11.55-29.61-7.63-7.16-18.24-10.79-31.51-10.79Z"></path><path class="cls-1" d="M512.28,353.49c-11.55,6.85-24.62,11.84-37.29,16.82,16.62,5.02,33.68,9.92,48.32,19.54-9.94-8.34-21.66-14.28-33.49-19.62,14.26-5.17,28.66-10.94,40.28-21.17,23.34-20.69,3.69-47.31-14.63-65.92,34.79,1.06,70.13-6.41,55.44-52.7-1.73-5.71-3.81-11.21-6.08-16.58,47.52,22.46,70.78,9.11,74.22-38.37,35.24,31.13,61.93,25.05,82.19-17.94,1.43,3.35,2.93,6.7,4.64,10.04,20.28,40.1,49.02,34.41,74.95,15.37,6.06,42.06,29.45,55.54,73.42,35.5-1.45,3.71-2.84,7.48-4.03,11.39-14.36,45.65,17.81,55.78,52.51,55.74-3.39,3.77-6.68,7.66-9.76,11.84-19.53,25.47-14.73,47.94,14.45,62.23,8.44,4.35,17.13,7.69,25.9,10.69-9.05,4.24-17.93,8.88-26.1,14.55,12.89-6.47,26.75-10.48,40.54-14.38-58.77-24.72-79.55-40.08-21.11-87.75l17.6-14.82s-23.21,1.55-23.21,1.55c-17.27.5-45,3.8-56.28-9.41-10.1-18.36,13.74-55.61,21.63-74.02-17.36,6.47-57.1,28.11-72.7,17.66-9.63-10.63-5.41-37.2-3.97-52.61l6.17-51.14s-32.71,39.93-32.71,39.93c-10.18,11.78-26.78,33.03-41.2,32.82-19.04-4.64-32.44-49.07-40.92-66.61-34.55,98-44.64,81.63-106.17,12.7,0,0,3.35,31.95,3.35,31.95,1.11,17.04,5.42,43.94-6.8,55.74-14.55,9.03-40.48-4.05-56.14-10.4l-14.6-6.44c8.3,18.36,30.06,52.96,19.6,71.64-4.54,6.82-15.41,9.56-25.74,10.58-15.23,1.53-32.38-.13-47.96-.93,0,0,11.59,10.01,11.59,10.01,23.91,21.14,55.89,49.77,14.08,72.49Z"></path><path class="cls-1" d="M942.35,425.21c-36.6-22.36-85.01-24.71-123.78-5.92-16.13,6.88-36.96,17.82-53.19,23.47-28.62,9.08-59.99,6.66-86.98-6.91-13.57-6.17-32.29-15.05-46.06-20.77-36.97-14.18-80.37-10.36-114.01,10.1-29.03,15.94-58.45,32.48-86.61,49.95,37.36-12.52,74.28-29.27,111.13-42.6,29.4-8.36,61.71-5.39,88.62,9.08l17.82,8.96,17.87,8.85c32.08,17.24,71.98,20.33,106.59,8.56,12.44-4.2,26.1-11.99,37.66-17.45l17.82-8.95c32.7-17.62,72.72-18.01,106.49-2.47,30.63,12.59,62,25.04,93.27,36.02-28.18-17.46-57.61-33.98-86.63-49.92Z"></path><path class="cls-1" d="M719.65,210.01c-90.38-.37-167.16,84.29-150.19,174.29,8.65-129.26,155.66-196.7,253.79-108.25,29.25,26.97,46.43,64.55,50.64,104.64,15.21-90.1-63.78-173.53-154.24-170.68Z"></path></svg>